<svg xmlns="http://www.w3.org/2000/svg" xmlns:xlink="http://www.w3.org/1999/xlink" width="2000" zoomAndPan="magnify" viewBox="0 0 1500 1499.999933" height="2000" preserveAspectRatio="xMidYMid meet" version="1.0"><defs><g/><clipPath id="197f5ad21b"><path d="M 750 0 C 335.785156 0 0 335.785156 0 750 C 0 1164.214844 335.785156 1500 750 1500 C 1164.214844 1500 1500 1164.214844 1500 750 C 1500 335.785156 1164.214844 0 750 0 Z M 750 0 " clip-rule="nonzero"/></clipPath><clipPath id="decd82e313"><rect x="0" width="1180" y="0" height="1500"/></clipPath></defs><g clip-path="url(#197f5ad21b)"><path stroke-linecap="butt" transform="matrix(0.75, 0, 0, 0.75, 0.00003335, -0.00002)" fill="none" stroke-linejoin="miter" d="M 999.999978 0.0000266667 C 447.713507 0.0000266667 -0.0000444667 447.713578 -0.0000444667 1000.000049 C -0.0000444667 1552.286519 447.713507 2000.000071 999.999978 2000.000071 C 1552.286448 2000.000071 2000 1552.286519 2000 1000.000049 C 2000 447.713578 1552.286448 0.0000266667 999.999978 0.0000266667 Z M 999.999978 0.0000266667 " stroke="#ff751f" stroke-width="48" stroke-opacity="1" stroke-miterlimit="4"/></g><g transform="matrix(1, 0, 0, 1, 122, 0.000000000000112861)"><g clip-path="url(#decd82e313)"><g fill="#ff751f" fill-opacity="1"><g transform="translate(1.004216, 1195.562108)"><g><path d="M 58.28125 -88.640625 C 41.28125 -109.691406 32.78125 -125.679688 32.78125 -136.609375 C 32.78125 -147.535156 42.289062 -162.507812 61.3125 -181.53125 C 80.34375 -200.5625 92.894531 -210.882812 98.96875 -212.5 C 105.039062 -214.125 110.910156 -214.9375 116.578125 -214.9375 C 122.242188 -214.9375 131.550781 -211.289062 144.5 -204 C 204.40625 -157.050781 257.023438 -133.578125 302.359375 -133.578125 C 347.703125 -133.578125 377.253906 -144.097656 391.015625 -165.140625 C 404.773438 -186.191406 411.65625 -213.71875 411.65625 -247.71875 C 411.65625 -281.71875 399.507812 -309.242188 375.21875 -330.296875 C 350.9375 -351.347656 311.066406 -376.847656 255.609375 -406.796875 C 200.160156 -436.753906 151.789062 -475.613281 110.5 -523.375 C 69.21875 -571.132812 48.578125 -620.515625 48.578125 -671.515625 C 48.578125 -762.191406 72.253906 -828.375 119.609375 -870.0625 C 166.972656 -911.757812 236.394531 -932.609375 327.875 -932.609375 C 383.726562 -932.609375 438.367188 -919.25 491.796875 -892.53125 C 520.128906 -881.195312 533.488281 -869.457031 531.875 -857.3125 C 531.0625 -852.457031 530.253906 -845.171875 529.453125 -835.453125 C 514.066406 -791.742188 502.328125 -766.648438 494.234375 -760.171875 C 491.804688 -758.546875 486.34375 -757.734375 477.84375 -757.734375 C 469.34375 -757.734375 446.875 -764.410156 410.4375 -777.765625 C 374.007812 -791.128906 343.046875 -797.8125 317.546875 -797.8125 C 292.046875 -797.8125 270.796875 -788.90625 253.796875 -771.09375 C 236.796875 -753.289062 228.296875 -728.195312 228.296875 -695.8125 C 228.296875 -663.425781 242.863281 -634.078125 272 -607.765625 C 301.144531 -581.460938 346.078125 -554.140625 406.796875 -525.796875 C 470.753906 -492.609375 518.71875 -458.203125 550.6875 -422.578125 C 582.664062 -386.960938 598.65625 -339.203125 598.65625 -279.296875 C 598.65625 -80.148438 514.460938 19.421875 346.078125 19.421875 C 220.597656 19.421875 124.664062 -16.597656 58.28125 -88.640625 Z M 58.28125 -88.640625 "/></g></g></g><g fill="#ff751f" fill-opacity="1"><g transform="translate(591.16679, 1195.562108)"><g><path d="M 529.453125 -143.296875 C 549.691406 -143.296875 559.8125 -130.34375 559.8125 -104.4375 C 559.8125 -78.53125 559.40625 -59.097656 558.59375 -46.140625 C 555.351562 -16.992188 542.398438 -0.398438 519.734375 3.640625 C 447.679688 14.160156 394.25 19.421875 359.4375 19.421875 C 238.8125 19.421875 155.832031 -14.578125 110.5 -82.578125 C 65.164062 -150.578125 42.5 -273.222656 42.5 -450.515625 C 42.5 -580.046875 52.414062 -679.015625 72.25 -747.421875 C 92.082031 -815.828125 124.054688 -863.789062 168.171875 -891.3125 C 212.296875 -918.84375 278.273438 -932.609375 366.109375 -932.609375 C 453.953125 -932.609375 518.113281 -918.84375 558.59375 -891.3125 C 566.6875 -885.644531 570.734375 -878.765625 570.734375 -870.671875 C 570.734375 -862.578125 566.882812 -847.394531 559.1875 -825.125 C 551.5 -802.863281 544.210938 -787.078125 537.328125 -777.765625 C 530.453125 -768.460938 523.367188 -763.8125 516.078125 -763.8125 C 508.796875 -763.8125 503.132812 -764.21875 499.09375 -765.03125 C 438.375 -777.164062 385.953125 -783.234375 341.828125 -783.234375 C 297.710938 -783.234375 268.972656 -758.945312 255.609375 -710.375 C 242.253906 -661.800781 235.578125 -583.070312 235.578125 -474.1875 C 235.578125 -365.3125 238.410156 -289.421875 244.078125 -246.515625 C 249.742188 -203.609375 260.265625 -173.648438 275.640625 -156.640625 C 291.023438 -139.640625 315.515625 -131.140625 349.109375 -131.140625 C 382.710938 -131.140625 420.765625 -133.164062 463.265625 -137.21875 C 505.765625 -141.269531 527.828125 -143.296875 529.453125 -143.296875 Z M 529.453125 -143.296875 "/></g></g></g></g></g></svg>