<svg xmlns="http://www.w3.org/2000/svg" viewBox="0 0 64 64" role="img" aria-label="SC">
  <defs>
    <linearGradient id="orange" x1="12" y1="10" x2="52" y2="54" gradientUnits="userSpaceOnUse">
      <stop offset="0" stop-color="#ffb45e"/>
      <stop offset="0.52" stop-color="#ff7a18"/>
      <stop offset="1" stop-color="#ff5a00"/>
    </linearGradient>
  </defs>

  <rect width="64" height="64" rx="15" fill="#08090b"/>
  <rect x="5" y="5" width="54" height="54" rx="13" fill="#11151c" stroke="#252a33" stroke-width="1"/>

  <path d="M48 18.5C44.2 14.8 38.8 12.5 32.2 12.5C21.1 12.5 12.8 20.8 12.8 32C12.8 43.2 21.1 51.5 32.2 51.5C38.8 51.5 44.2 49.2 48 45.5"
        fill="none" stroke="url(#orange)" stroke-width="6" stroke-linecap="round" stroke-linejoin="round"/>

  <path d="M40.5 21H27C21.8 21 18.5 23.6 18.5 27.5C18.5 31.5 21.8 33.3 28.7 34.1L34.4 34.8C39.9 35.5 42.7 38 42.7 42C42.7 46.3 38.6 49 32.3 49H20"
        fill="none" stroke="#fff7ed" stroke-width="6.2" stroke-linecap="round" stroke-linejoin="round"/>

  <path d="M28.8 34.1L34.4 34.8" fill="none" stroke="#ff8a1f" stroke-width="6.2" stroke-linecap="round"/>
</svg>
